<svg xmlns="http://www.w3.org/2000/svg" width="57.957" height="74.003" viewBox="0 0 57.957 74.003">
  <g id="Group_3" data-name="Group 3" transform="translate(-729.647 -62.763)">
    <g id="coffee" transform="translate(732.147 70.865)">
      <path id="Path_2" data-name="Path 2" d="M0,0H47.731V30.484c0,7.483-5.342,13.549-11.933,13.549H11.933C5.342,44.033,0,37.967,0,30.484Z" transform="translate(0 19.369)" fill="none" stroke="#373644" stroke-linecap="round" stroke-linejoin="round" stroke-width="5"/>
      <path id="Path_5" data-name="Path 5" d="M0,0" transform="translate(24.058 0)" fill="none" stroke="#373644" stroke-linecap="round" stroke-width="3"/>
      <path id="Path_4" data-name="Path 4" d="M0,0" transform="translate(35.722 0)" fill="none" stroke="#373644" stroke-linecap="round" stroke-width="3"/>
    </g>
    <circle id="Ellipse_13" data-name="Ellipse 13" cx="4.004" cy="4.004" r="4.004" transform="matrix(0.819, 0.574, -0.574, 0.819, 768.635, 100.799)" fill="#373644"/>
    <circle id="Ellipse_21" data-name="Ellipse 21" cx="4.004" cy="4.004" r="4.004" transform="matrix(0.819, 0.574, -0.574, 0.819, 753.625, 62.763)" fill="#373644"/>
    <circle id="Ellipse_20" data-name="Ellipse 20" cx="4.004" cy="4.004" r="4.004" transform="matrix(0.819, 0.574, -0.574, 0.819, 760.652, 70.769)" fill="#373644"/>
    <circle id="Ellipse_15" data-name="Ellipse 15" cx="5.005" cy="5.005" r="5.005" transform="matrix(0.819, 0.574, -0.574, 0.819, 755.145, 120.875)" fill="#373644"/>
    <circle id="Ellipse_16" data-name="Ellipse 16" cx="9.009" cy="9.009" r="9.009" transform="matrix(0.819, 0.574, -0.574, 0.819, 748.125, 78.802)" fill="#373644"/>
    <circle id="Ellipse_18" data-name="Ellipse 18" cx="3.003" cy="3.003" r="3.003" transform="matrix(0.819, 0.574, -0.574, 0.819, 737.084, 74.941)" fill="#373644"/>
    <circle id="Ellipse_22" data-name="Ellipse 22" cx="5.005" cy="5.005" r="5.005" transform="matrix(0.819, 0.574, -0.574, 0.819, 766.617, 116.195)" fill="#373644"/>
    <circle id="Ellipse_19" data-name="Ellipse 19" cx="7.007" cy="7.007" r="7.007" transform="matrix(0.819, 0.574, -0.574, 0.819, 776.125, 69.363)" fill="#373644"/>
    <circle id="Ellipse_17" data-name="Ellipse 17" cx="5.005" cy="5.005" r="5.005" transform="matrix(0.819, 0.574, -0.574, 0.819, 741.11, 102.239)" fill="#373644"/>
  </g>
</svg>
